<svg xmlns="http://www.w3.org/2000/svg" width="38.3" height="101" viewBox="0 0 38.3 101">
  <title>ar</title>
  <g id="Layer_2" data-name="Layer 2">
    <g id="Layer_1-2" data-name="Layer 1">
      <g id="ar">
        <path d="M36.6,9l1.7,1.6-6.4,9.5-2.2,2.4.7,10.9,4.9,5.9-4.1,7.2-3.1,1.4H24.5l1,5.6-5.6,1.9,1.4,4.8L17.9,70.9,22,74.2l-2.2,5.6L16,85.7l2,4.2-4.9.8-4-5L8.4,70.3,2.1,44.1,4,34.9,0,23.2,2.7,8,5.1,5.1,4.5,2.9,7.7,0l7.1.5,3.9,4.2h4.6l4.6,2.9-1.4,3.2.4,3.3,6.6-.4L36.6,9Z" style="fill: #fff"/>
        <path d="M22.2,96.1l.2,4.9,3.8-.3,3.2-2.2L24,97.4Z" style="fill: #fff"/>
      </g>
    </g>
  </g>
</svg>
