<svg xmlns="http://www.w3.org/2000/svg" width="99.1" height="110.1" viewBox="0 0 99.1 110.1">
  <title>au</title>
  <g id="Layer_2" data-name="Layer 2">
    <g id="Layer_1-2" data-name="Layer 1">
      <g id="au">
        <path d="M4,40.5,3.7,62.4.3,64.9,0,67l4.6,3.1L16,68h5.8l2.1-3.1,12.9-2.5L46,65.2l-.6,3.7,1.2,3.7,7.1-1.2.3,1.8-4.6,3.4,1.5,1.3,3.4-1.3-.9,10.2,6.4,5,3.7-1.3,1.8,1.9,10.8-1.6L86.2,74.4l3.7-.9,7.3-13.6,1.9-11.7-4.6-5.9,1.8-1.2L92.6,29.6l-4-2.7.7-15.5L85.6,8.6,84.7,0H82.9L76.8,20.4l-3.4.3L65.7,13,70,1.5,62.1,0,53.2,2.4,50.7,9.5l-4,1-.3-5L30.2,15.4l.3,3.7-2.6,3.4H21.8L8.6,28.1,4,40.5Z" style="fill: #fff"/>
        <path d="M59.9,99.6l-1.5,6.2.3,4.3,4.6-.3,5.2-8Z" style="fill: #fff"/>
      </g>
    </g>
  </g>
</svg>
