<svg xmlns="http://www.w3.org/2000/svg" width="94.9" height="98.4" viewBox="0 0 94.9 98.4">
  <title>br</title>
  <g id="Layer_2" data-name="Layer 2">
    <g id="Layer_1-2" data-name="Layer 1">
      <path id="br" d="M59.1,98.4,64.5,88l.2-8.7,10-6.5h5.7l4.4-7.6.8-14.4L83.8,47l10.7-9.8.4-10.7L80.4,19.3,62.9,13.9l-8.3-.8,2.2-4.7-.6-7.1L54.4.7,51.7,6,50.3,7.7,46.7,6.2,34.6,10.4l-4-5.1L31.3,0,27.5,3.9,23.3,1.7l-.5.6V4.1L26.5,6,21,11.8H17.6L14.1,8.3H10.2l-.5,4.2L12,15.3,9.3,23.8,6.2,24l-5,3.2L0,33.3l4.3,4.6.8-.9,3-.8,2.6,4.3,7.4-3.1h2.8l2,7,10.5,3.4,1.8,5.5,4.5.6,2.2,5.3-1.5,4.7,1.9,2.5L42,70.1l5.1-.5,4.6,5.8-.4,4.1,2.8,2.3-6.6,10,11.6,6.5Z" style="fill: #fff"/>
    </g>
  </g>
</svg>
