<svg xmlns="http://www.w3.org/2000/svg" width="181.7" height="159.3" viewBox="0 0 181.7 159.3">
  <title>ca</title>
  <g id="Layer_2" data-name="Layer 2">
    <g id="Layer_1-2" data-name="Layer 1">
      <g id="ca">
        <path d="M23.6,27.6l1.7,2.6.9,3.5,4.3,1,3-3.2,2.6,1.3,7.3.7,5.2-2.2.8,7.1h3.1v-3l3,.2L63,44.5l5,3-2.6,4.2,1.1,1.1,9.6,1.9.3,4.3,2.5.5.7-6.5,4.1-1.1,3,4.5,6.5,3.1,3.2.6,2.1-2.6.3-4.1,3.8-2.4,1.3,3.5-3.4,6.1.4,3,1.9-3,3.9-3.5.2-4.6-2.1-3.4.6-2.9,5.2-2.6,2.4,1.8.4,15.2,3.6-3.3,2.2,1.3-3,5.2,3.9.9,5.6-8.7,4.7,5-1.9,8.9-4.8,2.6-4.5-2.2L111,72.1l.9,2.8-2.2,3.5-6.6,1.5-7.6,5.8-6.6,8.9L88,97.4l4.5,1.8,1.7,4.3,6.3,6.3,9.9,4.4-2.2,9.9L108,127l2.6,1.7,3.4-4.6.5-8.6,5.4-.3,2.5-5,.5-7.5,6.9-13.5,8.6,3,4.5,6.3-1.9,6.3,3.4,2,8.4-5.7,2.4,15.4,7.7,9.4.2,4.7-8.6,2.2-4.1,4.3-8.6-1.9-4.3-.2-7.5,5.8,4.5-1,5.6-1.1,1.1,1.3-1.5,4.7.2,4.4,2.6,1.7,2.6-.6,1.3-2h1.7l-2.8,5.2-5.4.2-2.4,3.5h-3l-.8-2.6,4.3-4.3-5.2,1.7-.2-7.4-1.5-.8-4.5,1.9-.5,3.7H115.8l-8.9,6.1-11.8,3.9-1.3-1.7,6-8.9-3.4-3.3-2.2-4.1-4.3-3.4-4.7-.4-8.5-5.9-61.2-10-1-4.1-5.6-5.3v-4.3l.9-3.9-.4-2.1L7.3,99.8l-.5-3.5,5.6-3.9L9,73.7l-4.7-.2L0,67.9Z" style="fill: #fff"/>
        <path d="M2.5,96.5,1,99.3l.6,2,.9.6-.2.9-1,.2.3,3,1.1,1.1.8-.9-1.1-2.9.7-2.3,1.6-2.2-1.2-2Zm4.9,17-1.3.5,2.4,2.9.6,3.3,2.4,2.6,2.1-.4V119l-2.5-1.6-3.7-3.9ZM140.1,42.2l-1.5,1.6,1.3,2.1,6.3.8-4-4.3ZM62.9,16.5l.2,3.4-6.9,7.2L58,32.9l4.9-1.4,2.9-4.2,7.3-2.7,5.9-.4-4.6-5.1-2.3,1.8-1.7-.6-1-2.1-2.1-2.1ZM72,6.2,70.4,8.9l7.5,2.7,2.7-4,1.1,2.7h1.9l3.7-4.1L82.9,5.1,81.1,3.7,78.8,6Zm13.1,5.4-6,2.5v2L86.8,19l-1.7,1.9,1.1,2.5L91,21.3h4l2,3.1,3.2-3.3L99.5,18l-2.7.9-.4-3.8,1.3-2.3H96.4l-2.1,1.3-1,.8.6,2.7-1.5,1.1H90.1l-.6-3.5-4.4-3.5Zm7.8-6-.5,2L96,9.3l2.7-1.5-.2-1.2Zm2.9-3.2-2.7.9.2,1.4,6-.4-.2-1.4Zm12.9,3.2L108.3,7l-1,1.3v2l3.7-.6,3.8,3.3h1.3V9.7l-3.8-4.3Zm9.7,3.9,1.6,1.7-1.4,2.4,1,2.5,4.2-2.4V12l-2.5-2.9-2.9.4ZM124,5.1l.2,3h5.2l1.3,1.2-.2,1.4-4.6.5,3.3,4.5,4.4.7,6.1-2.7L130.9.4l-2.7,1.7.2,2.4-3.1-1.2L124,5.1ZM79.3,27l-7.2,1.9-4.3,3.7.4,4L75.9,39l-1.7,3.8-5.6-3.5-1.5,2.9,3.6,2.5-.2,4.1,5.6,1.5,6.7-.3,1.1-2.2,5,5.6,3.5-1.1.5-3.9,2.5,1.8.4-3.9-3.1-1.9.2-12.2-2.7-2.1-2.8,3.8Zm23.4,8.5-2.5-1.2-1.3,1.8,2.7,4.2.2,4.1,5.7-3.5v-5l2.1-2.2-2.1-1.5h-3.4ZM115,33.7,111,37l.9,4.1h2.5l1.2-2.1,1.7,1.7,1.7-.2,4.6-3.9L115,33.7Zm-.4-6.3-1,1.9,4.3,1.5,1.1-1.7-4.4-1.7Zm-2.5-7.5-4.2.6-2.5,2.3,4.6.2-1.3,3.5.9,1.5,1.4-.2,3.2-5.2Zm7.3-1.3-2.3.7.4,3.1,3.8,2.5.2,2L120.3,28l.6,3.9,14.8,4.8,4,1.4,4-3.5-4.8-3.9-4.4,1.2-6.1-.6L126.1,29l-.6-6.4-3.8-1.9Zm12.1,20.2-4.3-.4-4.9,1.9L119.6,44l.7,10,8.3.4,7.8,3.9,5.6,6.3,4.2-.2-1.1,6-3.9,6.4L137,78.7l-3-.6-1.6-1.3-2.3,3.1,1,3.1,3.2.2,4.1-2,3.4,8.9,8.6,5.6,6-7.5-5-8.1,2.9-3.3,4,6.8,7.3-6.4-1.4-2.9-4.9,1.5-3.5-9.4,3.3-5.4-6.5-7-3.7,2.5L145.5,49l-7.3,1-1.9-9.1-6,4-.5,5.1h-3.3l.4-4.5ZM134,20.3v1.8l-4.3.9,1.2,1.9,4.8,2,5.3.6,3.9,2.7,3.8-2.2L146,25.3h3.5l2.1-2.3,5.2-.8V21.1l-2.9-1.9.4-2.2,8,1.4,11.9-4.7-4.4-1.3,1.1-1.6h9.2l1.6-1.5L163.1,2.7l-4.4-1.5-4.8,3.5L148.5.2,145.6,0,145,3.7,141.4.4l-4.2,1.4.8,2.1,6.3,1.3-.4,3.1,3.5,2.2,8.4-2.2.2,2.9-6.9,3.3-4.2-3.3-3.9.4,3.9,5.4-2,1-2.8-2.5L138,16.8l1.9,3.7h3.2l-.7,3.5-2.7-.4-3.5-3.7ZM116.9,73.6l-3.7,4.6-.2,5,3.2-1.8h3.9l2.7,2.5,2.5-2.1Zm44.6,59.9-9.1,8.7.9,2.1,11.2,4.1,1.6-2.7-1-4.6-3.6.4-2.1-2.3,3.5-3.4Z" style="fill: #fff"/>
      </g>
    </g>
  </g>
</svg>
