<svg xmlns="http://www.w3.org/2000/svg" width="45.6" height="46.4" viewBox="0 0 45.6 46.4">
  <title>cd</title>
  <g id="Layer_2" data-name="Layer 2">
    <g id="Layer_1-2" data-name="Layer 1">
      <path id="cd" d="M.2,27.5H9.1L10.9,30v1.9l.7.6h4.3L17.2,30H19l.7.8h2.5l.7,8.7h4.3v.7l11.5,5.2.6,1h2.4l-.3-3.6-4.3-2.1.2-2.8,1.9-4.4h4.3L39.8,21.3V16.1L45.6,7V5.5L44.7,5V2.5h-1L42.6,1.2,25,.4,21.8,3.5,16.5,0,14.6,1.2,13.3,12.5,10,15.1,8.9,17.4l.2,3.4-6,4.9L1.5,25l.2.9L0,27.6Z" style="fill: #fff"/>
    </g>
  </g>
</svg>
