<svg xmlns="http://www.w3.org/2000/svg" width="25.9" height="110.8" viewBox="0 0 25.9 110.8">
  <title>cl</title>
  <g id="Layer_2" data-name="Layer 2">
    <g id="Layer_1-2" data-name="Layer 1">
      <g id="cl">
        <path d="M23.2,102l-3.7,8.1,6.4.7v-5.4L23.1,102ZM22,100.7l-2.8,3.1-.3,3.6-5.4-3L7.8,96.2l-1.7-3,2.4-3-.3-3.8L5.6,85.2,3.4,83.7l.5-2.2,2.8-.8.5-12.4L2.9,65.9,0,1.3.8,0,6.3,12.8H8.1l.6,2L6.3,17.7,3.6,33.2,7.5,45.1l-1.8,9L12,80.6l.7,15.5,4.5,5.2,4.8-.6ZM3.5,68.2,2.4,69.9l.6,3H4.1l.6-3.7L3.5,68.1Z" style="fill: #fff"/>
      </g>
    </g>
  </g>
</svg>
