<svg xmlns="http://www.w3.org/2000/svg" width="125.2" height="116.8" viewBox="0 0 125.2 116.8">
  <title>cn</title>
  <g id="Layer_2" data-name="Layer 2">
    <g id="Layer_1-2" data-name="Layer 1">
      <g id="cn">
        <path d="M21.9,25.3l-3,7.6-4.1-.3-4.3,9.6,3.7,4.7L6.6,57.4l-4-.7L0,60l.7,2,3,.2,1.5,3.5,3.1.6,9.3,12.1v6.1l4.6,2.8,5-.8,6.3,3.7,7.6,2.2,3.7-.5,4.1-.4,8.7-5.7,2.8.5,1.1,2.5,2.4.7,3.3,4.9L65,99.2l1.3,3.3,3.7,1.3.6,3.9,4.4.4.6-1.9,6.3-3.3,4,.2,4.5,5,3.1-1.3,1.9.2.9,2.5,1.5.2,2.2-3.1,8.7-3.3,7.8-9.4,2.6-9-.2-5.9-3.3-.6,2-2.2-.5-3.5-8.2-8.3V60.2l2.4-3.1,2.4-1.1.2-2.4h-6.1l-1.1,3.3-2.8-.6-3.5-3.8,2.2-5.6,3-3.3,2.8.2-.4,5,1.5,1.3,3.7-3.7,1.3-.2-.4-2.8,3.5-4.2,2.6.2,1.5-4.8,1.8-.9.2-3-1.8-1.9V24.1l3.3-.2L125,11.7l-2.3,1.4-.9,3.1h-3.9L106.5,9.8,98.3,0H90.1L88,1.9,90.6,8l-.9,5.7-3.3,1.4H84.5l-.2,5.7,2,.4,3.5-1.5,4.5,2.2v2.2l-3.2.2L88.5,30l-2.4.2L77.6,41.3l-8.9,4-6.1.4-4.1-2.8L52.6,46l-6.3-2-1.5-4.2-10.6-.6L28.5,30H26.1l-1.9-4.3-2.3-.2Z" style="fill: #fff"/>
        <path d="M99.3,112l-2,.5-1.5,1.9,1.2,2.4h1.8l2.1-1.8.5-2.4-2.1-.7Z" style="fill: #fff"/>
      </g>
    </g>
  </g>
</svg>
