<svg xmlns="http://www.w3.org/2000/svg" width="52" height="45.3" viewBox="0 0 52 45.3">
  <title>es</title>
  <g id="Layer_2" data-name="Layer 2">
    <g id="Layer_1-2" data-name="Layer 1">
      <g id="es">
        <path d="M39.2,1h-11L26,0H24.9L23.6,2.7l.5,2.8,4.2.4.5,1.7L27,18v1.8l3,1.6,3.5.3L40.3,20l3.4-4.3V11.4l6-5.4L50,3.6H47.9a1.7,1.7,0,0,1-.4.7,1.5,1.5,0,0,1-2,0,1.7,1.7,0,0,1-.4-.7h-.6L39.2,1Z" style="fill: #f9f9f9"/>
        <path d="M10.9,43.3l-1.5.8.7.7Zm-5.3.1-1.8.5.9,1.4H6.1ZM1.2,42,0,43.2l1.6,1.4,1-2.1L1.2,42Zm49-30.4-1.4.5.3,1.2h2l.9-.9Z" style="fill: #f9f9f9"/>
      </g>
    </g>
  </g>
</svg>
