<svg xmlns="http://www.w3.org/2000/svg" width="31.2" height="28.7" viewBox="0 0 31.2 28.7">
  <title>fr</title>
  <g id="Layer_2" data-name="Layer 2">
    <g id="Layer_1-2" data-name="Layer 1">
      <g id="fr">
        <path d="M15.7.2,13.8.7,10,4.8H8.8L7.3,3.7,6.3,4,5.5,6.3,0,6.5V7.7l3.8,2.6,4.5,3.5v4.4L5.9,22.3l5.2,2.5h0a1.5,1.5,0,0,1,.5-.8,1.9,1.9,0,0,1,1-.4,1.9,1.9,0,0,1,1.1.4,5.4,5.4,0,0,1,.4.8h2.2L17.9,23h3.2l1,.8,3.2-.2h.1a1.7,1.7,0,0,1-.8-.8,1.6,1.6,0,0,1,0-1.2,2,2,0,0,1,.8-.8,1.9,1.9,0,0,1,1-.1l-1.5-1.7-.2-1.7.5-1.7-1.1-1.6-1.8.6-.2-1.4,4-4.5V5.9l-2.3-.7-1.5-1L15.7,0Z" style="fill: #fff"/>
        <path d="M30.9,24.6l-1.7,1.7L29,27.9l1.4.8h.5l.3-2.2-.3-1.8Z" style="fill: #fff"/>
      </g>
    </g>
  </g>
</svg>
