<svg xmlns="http://www.w3.org/2000/svg" width="19.3" height="30.2" viewBox="0 0 19.3 30.2">
  <title>gb</title>
  <g id="Layer_2" data-name="Layer 2">
    <g id="Layer_1-2" data-name="Layer 1">
      <g id="gb">
        <path d="M9.7,1.1,8.1,3.5l.6.9h3.7V6l-1,1.3.6,3.4,2.1,4,1.6,3.6,2.5,1,1.1,1.9V23l-1.6.9-.2.8,1.1.7-.9,1.3-2.2.9-4.3-.5L4.5,30.2,2.3,29.1l6.3-3.7-.8-.5-3.3-.3,2.1-3L6.9,19l2.7-.3-.5-5H5.8l-.9-1.2V8.9H3L4.9,2.5,8.4,0,9.7,1.1Z" style="fill: #fff"/>
        <path d="M3,11.8l-2.8.3L0,14.7,1.9,16,4,15.5l.8-1.4L3,11.8Z" style="fill: #fff"/>
      </g>
    </g>
  </g>
</svg>
