<svg xmlns="http://www.w3.org/2000/svg" width="101.4" height="98.8" viewBox="0 0 101.4 98.8">
  <title>gl</title>
  <g id="Layer_2" data-name="Layer 2">
    <g id="Layer_1-2" data-name="Layer 1">
      <g id="gl">
        <path d="M1.2,19.1,0,21l2.2,2.1-1,2.1,3.1,4L8,28l5-.4,5.6,6.1,3.8,10.1-3.1,6.3,4.3-.7,2.3,1.4.2,3.1-5.1.2,2.8,2.8,3.5.8L19.6,68l-1,6.3,1.7,5.2-1.2,3.1,2.1,6.5,4,4.5,1.2-.2,2.6-.7.2,3.7,1.6,2.4,3.1-.3,2.3-8.6,7.1-8.7,10.6-4.3,6.6-8.2,3,1.4h6.3L75,64.9l6.4-2.5.7-4-4-3.6-3.5-1.1-1.9-5,4.4-2.6,7.1,3.8,2.3-2.6-3.7-2.1,8-10.8-1.4-4.7-3.8-.2L87,25.2l4.7-2.1,9.7-8.5-2.9-3-10.8.9-5.6,5.7,3.3-7.3-3.8-1-2.1,3.8-3.1-2.6-8.4,1,2.3-3.8,13.9-.5L80.7,3.1,65.7.2l-6.1,1,.3,3L53.5,2.1,53.7,0,49.3.9l-1,2.4L53,4.9,48.1,8.5l-3.5-4L39.6,3l-.7,3.8H34l-1.9-4L24.4,1.6,20.1,3.8l-.2,2.8-5.4-.7L11.2,7.3l.2,3.3v1.6L5.3,13.4,2.5,11.5.6,14.6l2.8,3,5.9-.7.5,1.9L5.3,20.9C5.2,21,1.2,19.1,1.2,19.1Z" style="fill: #fff"/>
        <path d="M20,55.8l1.4,2.1-.7,2.6H19.3l-1.9-2.1.5-1.7Zm58.9-5.9,4,1.2-.2,3.3-4.3-2.2-.9-1.1Z" style="fill: #fff"/>
      </g>
    </g>
  </g>
</svg>
