<svg xmlns="http://www.w3.org/2000/svg" width="14.6" height="20.1" viewBox="0 0 14.6 20.1">
  <title>gr</title>
  <g id="Layer_2" data-name="Layer 2">
    <g id="Layer_1-2" data-name="Layer 1">
      <g id="gr">
        <path d="M0,6.4V7.6l4,2,2,.7L5,11.4l-2.3.2-.3,1,.8,1.8,2.5,1.3H6.8v-3l1.6-2L4,5.5l.6-1.8h1L7.2,5l1-.5.3-1.8,3.8.5L13.4,0l-2,1.4L5.7,1.2,2,3.2Z" style="fill: #fff"/>
        <path d="M8.7,17.8h1.4l.6.9h2.1l1.3-.5.5.5-.9,1.2-4,.2-.7-1-.8-.5.5-.8Z" style="fill: #fff"/>
      </g>
    </g>
  </g>
</svg>
