<svg xmlns="http://www.w3.org/2000/svg" width="112.3" height="48.6" viewBox="0 0 112.3 48.6">
  <title>id</title>
  <g id="Layer_2" data-name="Layer 2">
    <g id="Layer_1-2" data-name="Layer 1">
      <g id="id">
        <path d="M.3,0,0,2l5.9,9.9H7.6L19.8,32.3l4.9.5,2.5-7.1-4-2.5-.7-3.9L.3,0Zm58,27.3,2,2.4L59,33.3V34h2.9l1-9,.9.2,1.7,8.3,1.6.4,1.6-3.5-1.6-5.3-1.2-2.3,4-2.9-1-1.3L65.1,21h-1l-1.9-2.7.6-1.2L66,15.6,70.7,17h1.5l3.5-3.3-1.4-1.5L71,14.8H68.9l-3.3-1.5H63.3l-2.5,4.1-1.6,7.1-.9,2.8ZM79.6,11.2,78,15.1l2.6,3.4h.8l1.1-2.2.6-.8L82,14.3l-1.6-.6-.8-2.5Zm5.1,12.9-3.4.8L80.2,26l.9,1.5,2.3-.9,1.4-.8,2.1,1.7,1-.8-1.7-2.1-1.5-.5ZM26.9,35.3l-2.4,1.6.5,1.4L32.6,40l3.8.6L38,42.4l4.3.3,2.1,1.7,1.8-.4L48,42.4,44.8,41l-2.7-2.3L35,37l-8.1-1.7Zm24.7,7.4-1.9,1,1.1,1.2,2.8-1-2-1.2Zm3.2-.8.4,1.7,1.9.5.8-1L57,41.8Zm4.7,4.3-2.4.4,2.2,1.8h1.6l-1.4-2.2Zm.7-2.8-.5,1,3.8.6,3-1.7-1.7-.5-2.8.8-1-.9Zm12.5.6-4.5,3.7.5.9,1.8-.3,2.2-2.1,4.4-.6-.9-1.4ZM95.1,18.9l-3.6.4L89.1,21l1,1.9,3.9.7v.7l-2.5,2.1,1.2,4.2h1.2L95,26.5h1.9l.8,4,9.4,7.8.2,6,3.2,3.5H112l.3-21.3-5.5-3.8L101.7,26l-1.8,1.2-3.1-2V19.1l-1.6-.2ZM51.5,5.9l-2,7.5L38.7,17.1l-3.2-3.8-1.6.4,2.9,11.4,4.4.5,5.9,2.2V30l2.7-.5,3.9-5.4V19.7l2.2-4.5,2.4.5L55.4,9.6l-.4-4-3.5.3Z" style="fill: #fff"/>
      </g>
    </g>
  </g>
</svg>
