<svg xmlns="http://www.w3.org/2000/svg" width="63.1" height="74.4" viewBox="0 0 63.1 74.4">
  <title>in</title>
  <g id="Layer_2" data-name="Layer 2">
    <g id="Layer_1-2" data-name="Layer 1">
      <path id="in" d="M24.5,74.4l4-1.9L30.8,64V53.5L44.3,39V35.5l2.8-1.1V30.5l-3-5.9,1.7-3.1L49.5,25l4.8.2v1.9l-1.4,1.6.3.9h2.5l.6,2.9H57l2-3.4.9-9.1,3.2-2.2V14.6l-1.3-2.4h-2l-7.9,5.2.5,3.4H46.8l-2-2.4H43.7l.4,3.3L32,20.9l-7.5-3.4-.4-4.1-4.9-3.1V3.9L15.8,0,7.9.7l.9,3.4,3.8,3.2L6,20.9l-4.5.3L.8,22.9l4.3,4L4.9,31H.4L0,33H3.7v1.6L1,36l1.7,3.2L6,40.3l2.1-1.5L9,36.1l1.2-.5L11.6,37l-.4,3.4-1,1.6.2,2.8Z" style="fill: #fff"/>
    </g>
  </g>
</svg>
