<svg xmlns="http://www.w3.org/2000/svg" width="48.7" height="38.2" viewBox="0 0 48.7 38.2">
  <title>ir</title>
  <g id="Layer_2" data-name="Layer 2">
    <g id="Layer_1-2" data-name="Layer 1">
      <path id="ir" d="M1,1.4,0,2.5V4.3L1.3,6.1,6,11.2l-.7,2H4.4L4,15.3l2.7,3.4,2.4.2L14,25.6l2.7.2,2.1,1.5v3.1l8.4,4.9h3.2l1.9-1.6h2.4l1.5,3.2,9,1.3.3-3.4,3-1,.2-1.2-2.4-3.3L40.9,25l2.8-2.5-.2-1.2L40,20.8,38.5,8.9V6.3L28.9,2.7l-4.2.9L22.4,6.5h-2l-.6.5-4.7-.3L9.2,2.4,7,0,6,.3l-1.8,2L1,1.7Z" style="fill: #fff"/>
    </g>
  </g>
</svg>
