<svg xmlns="http://www.w3.org/2000/svg" width="25.2" height="30.1" viewBox="0 0 25.2 30.1">
  <title>it</title>
  <g id="Layer_2" data-name="Layer 2">
    <g id="Layer_1-2" data-name="Layer 1">
      <g id="it">
        <path d="M.6,3.6,0,5,.2,6.4l2,2.4H5.5l7.2,8.4,4.4,1.3L19.8,21l.6,5.7,1.4-.9,1.3-3.1-.3-2.2,2.1-.2.3-1.3-6-2.8-5.6-5.5L11.4,7.4l-.6-3.2,2.9-.6L13,1.5,11.2,0H9.7L7.6.6l-2,2.8-1.2.8L2.5,3.1.6,3.8Z" style="fill: #fff"/>
        <path d="M18.1,26.2l-1.3-.7-4.2.7v1.2l3.9,1.9.5.6,1.1.2ZM5.2,17.8,2.9,18.9l.4,4.5,1.8.3,1.4-1.3V18.2Z" style="fill: #fff"/>
      </g>
    </g>
  </g>
</svg>
