<svg xmlns="http://www.w3.org/2000/svg" width="30.4" height="62.8" viewBox="0 0 30.4 62.8">
  <title>jp</title>
  <g id="Layer_2" data-name="Layer 2">
    <g id="Layer_1-2" data-name="Layer 1">
      <g id="jp">
        <path d="M1.5,54,0,55.4l.6,2H1.9l.8,4.3,1,1.1,1.7-1.6.2-4.7-2-2.2L1.5,54Zm7.3-4L6.2,52.2l-.6,2.7,1.8,1.2L10,53.4l.4-3.1L8.8,50ZM5.7,45.8,1.5,50.7V53l2.6-.3,4.1-3.6,2.7-.5.7.8v2.3l.7,1.3h1.3l1.7-2.2.8-2.8h3.5l3.5-4.2-1.8-6.9-.8-3.6,1.8-1.5-4.2-6.3-.9-.7-1.9.7-.5,2.6v2.1l1,1.2.4,5.5L13.6,40l-1.5-.9L11,41.7l-.3,2.4.9,1.4L11,46.6,9.1,45H7.8l-1.1.7-1,.2ZM12.9,8.2,11.5,9.4l.7,2.5L13.4,13v3.9l-1.5.5L10.7,20l3.4,4.7,2.3-.8.4-1.1-2.4-2.2,1.5-1.9,1.5.2,3.5,2.3.3-2.5,1.7-3,2.2-2.3-2.4-1.2-1-1.8-1.2.9-1.1,1.3-2.3-.5-2.4-1.6L12.9,8.2ZM25.4,5.6,23.1,8.9l.2,1.6,1.1-.5,2.8-3.5-1.8-.9ZM28.5.9l-.8,2.2V4.6l1.4-.9L30.4,1V0L28.5.9Z" style="fill: #fff"/>
      </g>
    </g>
  </g>
</svg>
