<svg xmlns="http://www.w3.org/2000/svg" width="86.3" height="47" viewBox="0 0 86.3 47">
  <title>kz</title>
  <g id="Layer_2" data-name="Layer 2">
    <g id="Layer_1-2" data-name="Layer 1">
      <path id="kz" d="M6,31.2l3.6-1.5,3.9-.2.3,6.1H11.5L9.7,38.5,12,42.3l3.4,1.9.4,2.2L17,46l1.2-1.4,1.9.5L21,47h2.5V44.5L22,40.1l-.7-3.6,4.4-1.9,5.8,1,3.7,3.7,8.3-.8,4.7,6.6,5.4.2,1.5-2.4,2-.4.2-2.8h2.9l1.5,1.8,1.5-3.6,13,1.8,2.1-2.9-3.6-4.6,4.9-10.7,3.9.3,2.8-6.6-5.5-.5-3.1-3.1-8.7,1L57.9,1.9,54,5.4,42.1,0,27.5,7.1,27,12.2l3.5,4-6.7,3.7-8.6-.2-1.8-2.6-6.8-.4L.2,20.8,0,26.5l6,4.8Z" style="fill: #fff"/>
    </g>
  </g>
</svg>
