<svg xmlns="http://www.w3.org/2000/svg" width="21.3" height="51.2" viewBox="0 0 21.3 51.2">
  <title>mm</title>
  <g id="Layer_2" data-name="Layer 2">
    <g id="Layer_1-2" data-name="Layer 1">
      <path id="mm" d="M19.5,51.2l-2.4-3.8,1.7-2.5-1.6-3-1.6-.3-.3-5L13,32.1l-.7,1-1.5,2.7-2,.3-.9-1.3-.5-3.4L5.9,28.6,0,23.1l1.5-1,.3-4,2.1-3.7.9-9L8,3.3V0L9.9.6l2.9,4.3L10.6,9.6l1.5,3.7,3.7,1.4.6,4,4.9.8L20,21.8l-6.2,2.5-.7,4,4.6,5.8v3.1l-1,1.1v1l3.4,4.9v5.2l-1,1.8Z" style="fill: #fff"/>
    </g>
  </g>
</svg>
