<svg xmlns="http://www.w3.org/2000/svg" width="68.6" height="32.6" viewBox="0 0 68.6 32.6">
  <title>mn</title>
  <g id="Layer_2" data-name="Layer 2">
    <g id="Layer_1-2" data-name="Layer 1">
      <path id="mn" d="M0,13.1,5,6.5l6,2.7,4.2,1.1,5-4.6L16.8,3.2,19,0l6.7,2.4L28,6.2h4.2l2.2-1.6L39,4.4l.9,1.7,7.6.4,4.7-4.9,6.6.7-.4,6.6,2.9.7L64.8,8l3.8,1.8v1H65.9l-2.9,6-2.2.2L52.3,28.1,43.6,32l-5.5.4-4.5-2.9-5.8,3.1-5.7-1.8-1.6-4.1L9.7,25.9,4.1,16.5H1.5L0,13.1Z" style="fill: #fff"/>
    </g>
  </g>
</svg>
