<svg xmlns="http://www.w3.org/2000/svg" width="65.7" height="57.1" viewBox="0 0 65.7 57.1">
  <title>mx</title>
  <g id="Layer_2" data-name="Layer 2">
    <g id="Layer_1-2" data-name="Layer 1">
      <path id="mx" d="M0,.4,4.2,13.5l-2,1.1.2,2.6,3.7,2.9v5.2l4.5,4.3L8.7,16.8,6.1,8.3l.6-5.9,2.2.2.9,2-.9,5,11.2,22v7.8l9.1,10.7,10,4.6,4.1-2.4,5.8,4.8,3.5-3.5-1.5-3.9L56,48.1l1.5.9L59,47.5h2.4l4.3-7.6-2.1-2-8.4,2-2,5.6-5,.9L42.4,44l-2.6-8.3,2-10.4-4-2.5-1.9-10-1.6-.7-3,3L28,13.3,26.7,6.6,13.4,5.2,6.5,0,0,.4Z" style="fill: #fff"/>
    </g>
  </g>
</svg>
