<svg xmlns="http://www.w3.org/2000/svg" width="45.4" height="90" viewBox="0 0 45.4 90">
  <title>no</title>
  <g id="Layer_2" data-name="Layer 2">
    <g id="Layer_1-2" data-name="Layer 1">
      <g id="no">
        <path d="M43.7,48l1.7-1.3V45.3l-1.1-.6V42.9h1v-1l-4.1-1.1-6.2.7-.6,2.7-1.5-.5L32,42.1l-3,.2-.4,3-1.4.6-.8-1.6-6.3,5.2,1.2,1.4L19,52,13.6,62.7,11.7,64v.9l1.9,1L13.2,68,10,67.8,9,66.7,7,69.1l-1.3,1-.3,2.2-1.1.6-2.9.7L0,78.1l.9,7.3,1.2,3.4L3.3,90H6.2l4.1-4,1.6-2.7.5,4,2.7-4.8V68.9l2.2-1.3.7-7.4,6.6-9.6,3.2-1.1,1.4-1.8L34,48.8l2.4,1.4.7-3.9,4-2.4L43.5,48Z" style="fill: #fff"/>
        <path d="M20.2,6.4,18.8,4.9,15.6,6.5H9.8L8.9,9.9l3.2,2.8,1.5-.2,2-3.5,1.7,1.3-1.2,2.4-.6,3.6,1.4,2.3L20,13.5l4-4.9L22.4,7.3ZM21.9.2,19.4,2.6l1.5,2.3h2.7l1.2,1.6,3.3,1.7L32,6l2.7-2.3-1-1.9L31.1.3l-2,1.8L27.8.4h-1L25.5,3.3l-2-2L23.3,0Zm5.8,10.6-2,1.8L24,14l.8,1.4,1.6.5,2.7-1.2,1.2-1.6-1.1-1.8Z" style="fill: #fff"/>
      </g>
    </g>
  </g>
</svg>
