<svg xmlns="http://www.w3.org/2000/svg" width="29.6" height="28" viewBox="0 0 29.6 28">
  <title>pg</title>
  <g id="Layer_2" data-name="Layer 2">
    <g id="Layer_1-2" data-name="Layer 1">
      <g id="pg">
        <path d="M.4,0,0,21.1H3.1l4-4.7h3.4l2.1,2,.7,5.9L20.2,28l1.8-.7V25.1l-5.5-4.6-2.8-6.2,2.2-1.1L14.3,9.7H11.1l-.8-3.8L1.8.2.4,0Z" style="fill: #fff"/>
        <path d="M26.4,5.8l-.8.2-.5,2.2L23.5,9.3l-4.7.8.2,1.8,5-.3,3.1-2-.2-3.4-.5-.4ZM24.3.6l-.7,1.1,4.1,3.7.6,2.1h1.1l.2-2.2L28.3,4.1Z" style="fill: #fff"/>
      </g>
    </g>
  </g>
</svg>
