<svg xmlns="http://www.w3.org/2000/svg" width="24.3" height="38.1" viewBox="0 0 24.3 38.1">
  <title>ph</title>
  <g id="Layer_2" data-name="Layer 2">
    <g id="Layer_1-2" data-name="Layer 1">
      <g id="ph">
        <path d="M5.3,21.3l-.8,1.4-.4,1.8L0,29.7l.2,1.1L2,30.6l5.3-6Zm6.7-2v4.3l1.5,1.6.6,3.1,1.6.3.7-1.9-1.2-.9-.3-5.4L12,19.3ZM16.4,21v3.8l.9,1.5,1.6-1.8-.4-3.3L16.4,21Zm1-3.4L19,19.7l.7,2h1.4l-.2-3.4-1.6-1.1-1.9.5Zm3.1,7.9.3,2.5-2.9,2.3-2.4.3L13,33.3v1.3l2.4-.8,1.7-1.1,1.4,3.6L21,38.1l1-.4.9-1.1-2-2,1.2-.9,1.3,1.1.9-1.5-.9-1.8-.2-4.1-2.7-1.9ZM7,.1,4.8,1.7l-.3,5L8,13.4l1.2.9,1.4-1,2.6.4.5,2.3h1.9l.9-1.2-1.2-1.6-1.4-1.3L11,11.6,9.4,9l1.8-2.8.2-2.4L10.1.7,7,0ZM8.2,15l.6,2.3,1.2.8.8-1.1L9.5,15.2Z" style="fill: #fff"/>
      </g>
    </g>
  </g>
</svg>
