<svg xmlns="http://www.w3.org/2000/svg" width="55.5" height="24.3" viewBox="0 0 55.5 24.3">
  <title>pt</title>
  <g id="Layer_2" data-name="Layer 2">
    <g id="Layer_1-2" data-name="Layer 1">
      <g id="pt">
        <path d="M51.6,0l-.5,7.5L49.6,8.9v.8l1.1,1.8L50,13.7l1.2.4,2.6-.4v-2l1.7-10L55.1.3,51.6,0Z" style="fill: #fff"/>
        <path d="M32,21.9l-1,1.2,1,1.2,1.4-.7ZM1.1,5,0,6.2,2.1,7.4l.2-1.7Zm6.4-.7-1.4,1,1.1.9,1.9-.5Zm.9,3.4L7.7,9.6l.9,1.2,1.2-.9Zm5.7,3.8-.4,1.2.7.7,1.9-1.2Z" style="fill: #fff"/>
      </g>
    </g>
  </g>
</svg>
