<svg xmlns="http://www.w3.org/2000/svg" width="341.5" height="178.5" viewBox="0 0 341.5 178.5">
  <title>ru</title>
  <g id="Layer_2" data-name="Layer 2">
    <g id="Layer_1-2" data-name="Layer 1">
      <g id="ru">
        <path d="M273.6,60.7l1.5,5.2,3.1.9,3-4.8-1.7-3.3.6-2.8h4.6L283.6,58l.4,7.9-6.5,16.2.6,3.5-.2,5.9,12.2,17.8,2.4.6.2-14.4,2.4-2.2-2.6-5.7,2.1-2.4-4.7-6.4-2.7.3-.8-10.5,6.7-1.8.5-3.1,3.4-.8,2,1.7,2.4-9.6,4.1-7,3.2-1.8,2.9.3V43.2l-4.6-.9L300.7,37l3.1-3.5-2.7-5.9,2.2-2.2,2.6,3.5,6.5,2.4,7.2.7.9-3.1-3.7-3.7,4.1-5.7-9.3-3.2-2.4,4.8-3.1-4L289,11.2,272.7,14l-2.4,1.3v1.3l3.5,1.7-.5,4.2L267,19.9l-13.9,5.4-2.3-5h-9.6l-4.4,4.6-15.4-3.5-14.1,2.9-1.7,4.3,2.1.7-.2,3.3-13.7,1.5.9,4.4-12.6-2.2,3.1-5.7-12.9-.7,1.1,6-4.1,1.9-3.5-3.3L151.6,37l-5.4,5-.2,3-3.5.3-.4-3.5,11-9.7V25.6l-7.1-2-9.4,3.1-3.9-4H131l-2.2,4.4,1.8,2-12.4,6.7L107.4,44l-6.5,9v3.7l7,2.9-3.5,2.6L97,59.6l-3.1,2.6-4.5-5.3-.9,2,5,15.8,1.3.4,3.5-1.7,1.7,1.3v2.8l-3.2-1.3-2,1.5,1.3,2.9L95,88l-6.7.7-.4-2.4,3.9-2.4.8-6.6-4.3-5.7-1.5-9.8-7-1.1-.6,3.5,1.3,1.7-2.8,2.4,1,6.6,4.2,1.7.8,4.9-4.1-2.7L69,76.9l-1.3,3.5-8.5,3-1.3-2.2L46.8,87.4l-.2,4.1-4.4.7,1.3-3.1v-3l-4.3-1.6-2.8,1.1,2.4,4.6,1.7,3.1v2.4L37.2,95l-.6-.6-3.3,3.5,1.8,3.1-7.4-.3,2.4,3.1-.7,1.3h-4l-2.8-2-.7-5.4-4.5-1.8V93.7l9.5,2,5.3.4,2.1-3.2-1.9-3.5L18.5,83.9l-4.8,1.2L12,86.5l.5,3.2,2.1.4-.5,5.1L20.4,110l-4.6,7.2-.3,1.6,2.3,1.6-2,1.4H14.4l.2,6.4,1.9,2.7v2.6l2.4.2,3.8,1.5,3.9,5.4V142l-1.3,2.2h2.9l2.9.8,3.9,5.5,9.6.9-.4,6.5-3.3,2.9.6,1.1-3.2,3.5-.9,3.3,2,2.8,6.3,2.2,2.6-1.5L65,178.5l.7-1.7-3.5-3.3v-4.2l-2.2-.6.5-3.5,3.4-4.2-6.2-4.7.4-6.5,6.7-4.3,7.8.4,1.3,2.4,8.1.4,5.8-3.2-3-3.3.6-6.2,15.2-7.4,11.8,5.4,3.9-3.5,11.8,10.8,8.6-.9,3.1,3.1,8.2.9,5.5-7.5,6.9,3.1,3.7.7,3.7-3.3-3.3-2.2,2.9-4.4,8,2.6,1.7,3.5,3.5.3,2.2-1.6,5.9-.2.6,1.5,6.7.5,4.6-4.8,9.3,1.1,2.9-1.1.8-5.3-2.8-6.3,2.8-2.4h8.9l8.5,10,10.9,6.2h3.2l.5-2.7,3.9-2.4.4,14.2-3.5.3v3.5l2,2.4-.4,3.1,1.5.6.8-2.2,1.3.5.9.8,3.9-.8,3.9-11.4.4-14.3-4.9-11.3-6.3-7.7-3.1.4v2.5l-7.4-2.9,2.8-6.1L244.4,85l10-3.1,4.8-3h5.2l-1.3,1.7,1.3,2.2L269,78l2.6.2-.4-2.8-4.2-.9,2.8-10.3,3.8-3.5Z" style="fill: #fff"/>
        <path d="M1.3,136.9,0,139.3H5.7L5.5,138l-.7-.9Zm291.5-25.1-1.1,1.3v2.1h1l1.6-2.9-1.5-.5Zm35.6-81.1-2,1.3-.5,1.7,1,1.1,2.1-.7,2.2.7,1.2.4v-4l-4-.5Zm-288.6.4,1.5.6-1.1,1.8V36L38,37.4H35.6l-1.3-1.7V33.9l1.1-1.3h2l2.3-1.5Zm5.6-1.7v1.8l1.5,1.2H49l1.8-1.7V29.4H49.1l-1.3.5-1-1.2Zm8.6.2,1.1,2.2,2,.2,1.5-.6-.7-2.1L56,28.8Zm8.5-3-1.6-.3-1.5,1.5.7,1.3.5,2.1,1.9-1.5.4-1.6Zm9.1,16-.5,2.1-3.4,3-7.3,1.6-6,9.9-1,2.9,6,1.5.8-3.6L62,54.4,66.6,52l3.9-3,2.8-1.2h1.5v-4l-3.2-1.2ZM52.4,64.5l4,.4,1.3,4.7,3.5,3.6L60,75.6H57.9l-2-2.3H51.6l-1.8-2.4V69.1l2.7-.7V64.5Zm62.8-51.3-2-1.2H111l-.4,1.4-2.4,1.3-1.8.6-.3,1.8,4.2.3Zm4.6.5-1.1,2.2h-2l-3.3,2.4-.9,3h2.1l1.2-2,2.8,2.1,2.7-1.2,1.9-1.6-.7-2.6-1.1-1.8-1.6-.5Zm4.3,1.6,1.1,4.2,1.6,3.9,1.8-3.1,3.4-.8V17.3l-2.2-1.7-5.7-.3ZM206,8.6l2.3,1.9,1.7-.6.4-2.8-3.3-2.3-2.3,1.5-5.4.4V9.2h-5.7v4l6.7,5,1.7-1.3-.4-3.5,4.3-1.1-.9-1.7-1.5-1.5,2.4-.5Zm6.2-2.4,1.5,3,6.1-.7,1.6-2.2L221,4.5l-1.6-.7L217.8,5l-4.4,1Zm-.4,11.5-3-.8-1.7,1.9-.8,2.5,4.1-.4,3.1-1.6-1.7-1.6ZM289.9.8,287.3,0l-2.9,1.1L283,3.2l1.8,2.5,4.9-2.2.9-1.1Zm.9,116.1v3.7l1.1.4.9-1.3v-2.8Zm-33.9-13.3v5.3l6.7,10.4,2.4,8.9,4.2,8,1.7.6,1.4-1.1.6-2-6-6.5.2-3.5,1.3-.5.3-2-11.8-16.8-.9-.8ZM303.6,87l-1.7.2,1,1.4L305,90l.6-.6Zm3.2,1,.3,1.4,2.5.8.3-1Zm14.1,5.5,1,1.9h1.8l.4-1.4Zm18.1,3,1.4,2.7,1.1-1.3V96.1Z" style="fill: #fff"/>
      </g>
    </g>
  </g>
</svg>
