<svg xmlns="http://www.w3.org/2000/svg" width="17.1" height="24" viewBox="0 0 17.1 24">
  <title>sb</title>
  <g id="Layer_2" data-name="Layer 2">
    <g id="Layer_1-2" data-name="Layer 1">
      <g id="sb">
        <path d="M0,.3l1.1,3L3,5.1l.6-.5-.2-2L1.2,0,0,.3ZM5.2,4.7l.2,2L6.6,7.8l1.1-.7L6.7,5,5.2,4.7ZM6.8,9.6,5.7,10.7l1.1,2,1.3.4V11.7L6.8,9.6ZM9.2,8.5l.9,2.1,1.7,2.1,1-1.5L11.5,9,9.2,8.5Zm4.4,3.2.5,2.7L15.3,16l1.1-2-2.8-2.3Zm1.5,6-.4.8,1.4,1.9h1L16.5,18Zm-3.3,3.8-1.5.7L11.6,24l1.2-.6Z" style="fill: #fff"/>
      </g>
    </g>
  </g>
</svg>
