<svg xmlns="http://www.w3.org/2000/svg" width="22.9" height="49" viewBox="0 0 22.9 49">
  <title>se</title>
  <g id="Layer_2" data-name="Layer 2">
    <g id="Layer_1-2" data-name="Layer 1">
      <g id="se">
        <path d="M15.8,0l1.7,1.6h3.1l1.8,3.3.5,5.8-4.3,3v3.1l-3,4.1-1.8.2-2.4,4,.2,3.8,4.1,3-.3,1.8-1.6,2.4-2.4,2.1.2,6.8L7.9,46.3,6.7,49H4.9L4,44.2l-4-6,3.3-5.5.2-13.5L5.7,18l.6-7.7,6.4-9.2L15.8,0Z" style="fill: #fff"/>
        <path d="M16.4,39.5,14.6,41l.9,2.1,1.6-1.6Z" style="fill: #fff"/>
      </g>
    </g>
  </g>
</svg>
