<svg xmlns="http://www.w3.org/2000/svg" width="20.3" height="41.6" viewBox="0 0 20.3 41.6">
  <title>th</title>
  <g id="Layer_2" data-name="Layer 2">
    <g id="Layer_1-2" data-name="Layer 1">
      <path id="th" d="M5.9,0,8.7,3.6V8l.9.5,4.5-2.2.9.3,5.3,6.2L20.1,17l-1.7-.3-1.6-1h-1l-2.1,3.4.4,1.9,1.7.8v2.1l-1.2.6-4-2.8V19.3H9l-.7,1.1L8,31.3,10.5,36l4.6,4.3-.2,1.3H12.5l-2.2-3.3H7.8L4.9,36,4,33.5l1.3-2,.4-1.9,1.4-2.4V21.6L3.6,16.7v-.6l1-1.1-.2-3.8L0,5.6.5,2.3,5.9,0Z" style="fill: #fff"/>
    </g>
  </g>
</svg>
