<svg xmlns="http://www.w3.org/2000/svg" width="43.4" height="18.4" viewBox="0 0 43.4 18.4">
  <title>tr</title>
  <g id="Layer_2" data-name="Layer 2">
    <g id="Layer_1-2" data-name="Layer 1">
      <path id="tr" d="M9,2.7,6.7,1.3,5.5.3l-2.2.9L1.9,4.9l2.2-.5L5.6,3.2l3.5,1-2,1.9L2,5.8,0,7.9v1l1.3,1v1.2L.8,12.4l.5,1.1,1.6-.8,1.6,1.7-.4,1.3-.6.8.9,1,4.5.9L12,17.1V15.2l1.5.3,3.7,2.1,3.9-.6,1.7-1.6,1.2.4v1.8h1.5l1.3-2.5,11.5-1.3,5.1-.6-1.3-1.7V9.1l1-1.2L39.5,5l.2-2.6H37.6L34.3.8l-2,2-7-.2L21,0,16.9.4,12.4,3.1,9.1,2.7Z" style="fill: #fff"/>
    </g>
  </g>
</svg>
