<svg xmlns="http://www.w3.org/2000/svg" width="229.3" height="200.5" viewBox="0 0 229.3 200.5">
  <title>us</title>
  <g id="Layer_2" data-name="Layer 2">
    <g id="Layer_1-2" data-name="Layer 1">
      <g id="us">
        <path d="M113,114.4l-.8,3.5-3.1-2h-1.5l-.8,3.7L96.2,143.3,99,163.9l3.5,1.7.6,5.6h7.1l6.9,5.3,13.6,1.3,1.5,6.9,2.1,1.5,3-3,2.4,1.1,2.2,9.9,3.6,2.4,3-5.6,9.3-6.7,6,2.8,5.2.4.2-3.2,10.8.2,2.1,2.4.5,5.4-1.3,3,1.5,5.2H186l3.2-5-1.3-2.4-1.2-5.2,1.9-5.8,8.8-7.6,6.7-2-.9-6.3,9.3-9.9,9.2-1.6-1.5-5.2,9.1-5.2v-6.9l-.9-.4-3.2,1.1-.4,4.2H214l-8.4,5.6-13.2,4.3-2.1-2.5,6-9.1-3-2.8-2-3.9-4.2-3.3-4.5-.4-8.6-5.9-61-9.9Z" style="fill: #fff"/>
        <path d="M44.1,23.5l3,5.6,1.9-.4V26.8ZM27.3,72.7l-.2,2.6,1.9-.4V73.7Zm-2.9,1.2-3.7,1.9.5,2,1.5-1.2,2.8-1.3ZM8.8,76.4l-2.6-.6-.4,1.1L6,79.1Zm-5.5-.2-2.4-1L0,76.8l1.6,1.6ZM64.8,16.1l-7.2,1.8L59.1,26,67,28.2l.4,1.7L55.6,33.5,49,44.5l2.4,11.6,3.8,2.6,3-2.8.9,1.7-3.7,4.3L41.3,68.4l-8.9,2.1-.2,3.3,20.7-6,8.5-2.3,7.9-9.7L78,50l-4.4,7.5,4.9.7,8.3-3.7,1.5,6L94,61.8l6,5.8.4,4.3L99.6,73l1,4h1.5l.3-6.8h1.7l.4,16.9,4.3-3.6-3-17.6h-4.5l-4.9-6.3,24.2-40.8L96.7,0,70,5.2l-1,8.1,5.7,3.5-2.1,5.6C72.5,22.5,64.8,16.1,64.8,16.1Z" style="fill: #fff"/>
      </g>
    </g>
  </g>
</svg>
