<svg xmlns="http://www.w3.org/2000/svg" width="40.4" height="35.2" viewBox="0 0 40.4 35.2">
  <title>za</title>
  <g id="Layer_2" data-name="Layer 2">
    <g id="Layer_1-2" data-name="Layer 1">
      <path id="za" d="M32.2,0,25.3,6.3l-1.6,3.9-5.4-.6-4.5,4-3-.3L11,7.7l-1-.3L9.2,18.7H3.9L2.3,16.8H0L2.1,23l3.8,3.6-2.7,3,1.8,4,4.1,1.6,3.2-2.8h9.3l.7-.8,4.1-.7L40.4,17V12.6L39,14.5H36.7L34,12.2l1.4-3.4,2.4-.5-.3-7L32.3,0ZM28.9,16h1.3l2.1,2.3v2.6l-2.5,1.3-.2.9H25.8l-1.2-2.8,1.1-2.1L28.9,16Z" style="fill: #fff"/>
    </g>
  </g>
</svg>
